<?xml version="1.0" encoding="UTF-8" standalone="no"?><svg xmlns="http://www.w3.org/2000/svg" xmlns:xlink="http://www.w3.org/1999/xlink" fill="#cf3838" height="294.8" preserveAspectRatio="xMidYMid meet" version="1" viewBox="-0.4 0.0 318.8 294.8" width="318.8" zoomAndPan="magnify"><g id="change1_1"><path d="M48.985,4.982c-0.018-2.209,1.759-4.015,3.968-4.032L171.759,0h0.033c2.194,0,3.981,1.77,3.999,3.968 c0.018,2.209-1.759,4.015-3.968,4.032L53.017,8.95h-0.033C50.79,8.95,49.003,7.181,48.985,4.982z M168.565,35.117 c-0.537-2.143-2.708-3.448-4.853-2.907L3.028,72.482c-2.143,0.537-3.444,2.709-2.907,4.853c0.455,1.816,2.085,3.028,3.877,3.028 c0.321,0,0.649-0.039,0.976-0.121L165.658,39.97C167.801,39.433,169.102,37.261,168.565,35.117z M102.425,102.328 c-1.94,1.055-2.658,3.483-1.603,5.425c0.725,1.334,2.099,2.09,3.518,2.09c0.646,0,1.3-0.157,1.907-0.487l72.32-39.328 c1.94-1.055,2.658-3.483,1.603-5.425c-1.055-1.94-3.482-2.658-5.425-1.603L102.425,102.328z M208.265,92.797 c-1.484-1.639-4.013-1.764-5.65-0.281L72.797,210.017c-1.638,1.482-1.764,4.013-0.281,5.65c0.79,0.872,1.876,1.315,2.967,1.315 c0.957,0,1.918-0.342,2.684-1.034L207.983,98.447C209.621,96.965,209.747,94.435,208.265,92.797z M237.008,118.188 c-1.866-1.18-4.338-0.625-5.52,1.24l-39.109,61.775c-1.182,1.866-0.626,4.338,1.24,5.52c0.664,0.42,1.404,0.621,2.136,0.621 c1.325,0,2.622-0.659,3.384-1.861l39.109-61.775C239.43,121.841,238.874,119.369,237.008,118.188z M272.474,132.197 c-2.138-0.597-4.334,0.656-4.925,2.784l-42.967,154.798c-0.591,2.128,0.656,4.333,2.784,4.924c0.358,0.1,0.719,0.146,1.072,0.146 c1.753,0,3.36-1.16,3.853-2.931l42.967-154.798C275.849,134.993,274.602,132.788,272.474,132.197z M314.392,135.79 c-2.209,0-4,1.791-4,4v111.899c0,2.209,1.791,4,4,4s4-1.791,4-4V139.79C318.392,137.581,316.601,135.79,314.392,135.79z" fill="inherit"/></g></svg>