<?xml version="1.0" encoding="utf-8" standalone="no"?><!-- Generator: Adobe Illustrator 18.1.1, SVG Export Plug-In . SVG Version: 6.00 Build 0)  --><svg xmlns="http://www.w3.org/2000/svg" xmlns:xlink="http://www.w3.org/1999/xlink" enable-background="new 88 7 405 562" fill="#000000" version="1.1" viewBox="88 7 405 562" x="0px" xml:space="preserve" y="0px">
<g id="Change1">
	<path d="M470.5,433.8c0,36.8-34,66.6-76,66.6s-80.6-29.8-80.6-66.6s28-88,70.1-88   C472.7,345.9,470.5,397.1,470.5,433.8z" fill="#ffde6b"/>
</g>
<g id="Change2">
	<path d="M186.6,388.8c18.3,14.5,19.5,43.2,2.9,64s-46.7,28.2-64.8,13.7c-18.3-14.5-32.5-48.6-15.9-69.5   C143.9,352.9,168.5,374.2,186.6,388.8z" fill="#db4537"/>
	<path d="M366.4,152.9c0,0-36,1-37,32.5c-1.2,31.4,30.3,44.5,53.3,25.9s14.1-43.6,14.1-43.6L327,44.3   c0,0,29.6-2.9,55.3,22.9c15,15.1,37.1,48.3,33,56.8s22.6-26.4-15.5-65.2c-44.9-46-89.8-40.3-89.8-40.3l-14.8,6.5L366.4,152.9z" fill="#db4537"/>
</g>
<g id="Change3">
	<path d="M351.7,377.8c0,0-23.3-27.3-48.5-8.6c-25.3,18.7-15.8,51.4,12.9,57.8c28.7,6.4,42.9-16.2,42.9-16.2   l52.8-131.5c0,0,20.7,21.3,16.6,57.5c-2.4,21.2-14.5,59.1-23.7,61.3c-9.2,2.1,34.7,1.2,41.2-52.7c7.8-63.9-24.7-95.4-24.7-95.4   l-14.3-7.4L351.7,377.8z" fill="#db4537"/>
	<path d="M234.5,452.8c0,0,6.4-12.3,0.6-13.7c-5.8-1.4-3.7,9.4-3.7,9.4s-10.9-10-11.2-5.1c-0.2,4.9,7.3,9.9,7.3,9.9   s-9.5,5.1-10.5,7.8c-0.9,2.6,10.9-3.3,10.9-3.3s-7.3,16.9-2,15.8c5.2-1,6.5-14.4,6.5-14.4s14.9,13.8,13.5,9.1   c-1.4-4.8-7.8-10.5-7.8-10.5s19.1-3.6,14.1-7.6C247.3,446.3,234.5,452.8,234.5,452.8z" fill="#db4537"/>
	<path d="M295.2,249.3c0,36.8-34,66.6-76,66.6s-80.6-29.8-80.6-66.6s28-88,70.1-88   C297.4,161.3,295.2,212.5,295.2,249.3z" fill="#db4537"/>
</g>
<g id="Change1_1_">
	<path d="M170.5,421.7c0,0,1.7,0,4.8,0.6c-3.5-7.1-6.6-14.4-9.5-21.9c-4-0.6-6.3-0.6-6.3-0.6l-12.3,3.7l44.5,107.6   c0,0-28.5-2.6-32.3,22.2c-3.8,24.8,19.8,37.9,39.7,25.5s15.2-33.2,15.2-33.2L170.5,421.7z" fill="#ffde6b"/>
	<path d="M268.5,392.4c0,0,1.7,0,4.8,0.6c-3.5-7.1-6.6-14.4-9.5-21.9c-4-0.6-6.3-0.6-6.3-0.6l-12.3,3.7l44.5,107.6   c0,0-28.5-2.6-32.3,22.2c-3.8,24.8,19.8,37.9,39.7,25.5c19.9-12.5,15.2-33.2,15.2-33.2L268.5,392.4z" fill="#ffde6b"/>
	<path d="M175.2,422.3c0,0,45.6-19.7,54.8-22.6c9.2-2.9,38.4-7.3,38.4-7.3s1.3-25.7-11.1-22   c-12.3,3.7-35.1,8-42.8,9.5c-7.6,1.5-67.5,23.5-67.5,23.5L175.2,422.3z" fill="#ffde6b"/>
	<g>
		<path d="M232,325.9c0,0,9.4-10.1,5.2-15.7c-4.2-5.6-17.7-17.5-28.6-4.2s7.1,36.9,22.9,34.2s25.4-8.4,26.8-16.5    c1.4-8-5.2-37.7-5.2-37.7l-16.3-61.6l-12.6-48.6c0,0-10.7-45.3-10.8-50.2c-0.1-4.1,8.7-21.3,12.7-28.5c0.8-1.5,1.5-2.6,1.7-3    c1.5-2.2-7.3-12.8-7.3-12.8s-20.6,21.5-19,44.5c1.6,22.9,35.6,151.4,35.6,151.4s10.1,26.8,9,36.2c-1.2,9.5-4.7,12.5-8.4,14    C234,329.1,232,325.9,232,325.9z" fill="#ffde6b"/>
		<path d="M231.2,94.8c2.3,2.7,7,11.3,7.2,16.8c0.2,5.4-9.2,27.2-14.5,33.5c-5.4,6.2-18.2,21.6-18.2,21.6    s-37.1,41-33.5,64.1s12.7,49.2,32.2,55.5s53.6,0.1,59.8-5c6.2-5,19-29.9,16.6-43.9c-2.4-14-7.8-21.1-12.8-25.3    s-14.4-11.8-21.1-13.8c-6.6-2.1-16.9,0.5-16.9,0.5s-13.7,2.4-18.3,9.1c-4.5,6.6-11.8,17.9-11.1,23c0.7,5.1,10.6,26.6,16.1,23.5    c5.5-3.1-9.8-7,2.3-18.7c12.1-11.8,26.8-12.6,26.8-12.6s14.3,3.5,15.5,11.9s3.5,21.4-1.2,26.9c-4.7,5.5-16.1,12-27.9,13.6    c-11.9,1.6-40.1-10.9-40.5-20.8s-7-25.7,3.4-39.7c10.4-14,27.5-36,33.7-44.2c6.3-8.3,27.6-34.7,24.1-60.3S236.5,68.1,232,71.7    c-4.4,3.6-13.7,12.6-13.7,12.6v9.1L231.2,94.8z" fill="#ffde6b"/>
	</g>
</g>
<g id="Change4">
	<g id="Layer_1_1_">
		<path d="M329.7,278.3c0,0-7.7-15.7-13.5-10.8s6.7,10.8,6.7,10.8s-18.4,3.6-13.5,7.6c4.9,3.8,15.5,0,15.5,0    s-2,13.5,0,16.4s4.9-13.5,4.9-13.5s11.6,20,14.5,13.8c2.9-6.2-9.7-17.5-9.7-17.5s25.1-4.7,19.3-6.9s-16.4,0-16.4,0    s10.6-22.1,2.9-19.9C332.6,260.7,329.7,278.3,329.7,278.3z" fill="#2f2f2f"/>
		<path d="M348.4,364.3c0,0-23.3-27.3-48.5-8.6c-25.3,18.7-15.8,51.4,12.9,57.8c28.7,6.4,42.9-16.2,42.9-16.2    l52.8-131.5c0,0,20.7,21.3,16.6,57.5c-2.4,21.2-14.5,59.1-23.7,61.3c-9.2,2.1,34.7,1.2,41.2-52.7c7.8-63.9-24.7-95.4-24.7-95.4    l-14.3-7.4L348.4,364.3z" fill="#2f2f2f"/>
		<path d="M354,147c0,0-36,1-37,32.5c-1.2,31.4,30.3,44.5,53.3,25.9c23-18.5,14.1-43.6,14.1-43.6L314.5,38.4    c0,0,29.6-2.9,55.3,22.9c15,15.1,37.1,48.3,33,56.8s22.6-26.4-15.5-65.2c-45-46-89.9-40.4-89.9-40.4l-14.7,6.6L354,147z" fill="#2f2f2f"/>
		<path d="M206.4,348.4c0,0-5.4-10.8-9.3-7.4s4.7,7.4,4.7,7.4s-12.7,2.6-9.3,5.1c3.4,2.7,10.7,0,10.7,0    s-1.3,9.3,0,11.3s3.4-9.3,3.4-9.3s8,13.7,10,9.5c2-4.2-6.6-12-6.6-12s17.3-3.3,13.3-4.7c-4-1.5-11.3,0-11.3,0s7.3-15.2,2-13.7    C208.5,336.2,206.4,348.4,206.4,348.4z" fill="#2f2f2f"/>
		<g>
			<path d="M157.2,415.5c0,0,1.7,0,4.8,0.6c-3.5-7.1-6.6-14.4-9.5-21.9c-4-0.6-6.3-0.6-6.3-0.6l-12.3,3.6l44.5,107.6     c0,0-28.5-2.6-32.3,22.2c-3.8,24.8,19.8,37.9,39.7,25.5s15.2-33.2,15.2-33.2L157.2,415.5z" fill="#2f2f2f"/>
			<path d="M255.2,386.2c0,0,1.7,0,4.8,0.6c-3.5-7.1-6.6-14.4-9.5-21.9c-4-0.6-6.3-0.6-6.3-0.6l-12.3,3.7l44.5,107.6     c0,0-28.5-2.6-32.3,22.2c-3.8,24.8,19.8,37.9,39.7,25.5c19.9-12.5,15.2-33.2,15.2-33.2L255.2,386.2z" fill="#2f2f2f"/>
			<path d="M161.9,416c0,0,45.6-19.7,54.8-22.6s38.4-7.3,38.4-7.3s1.3-25.7-11.1-22c-12.3,3.7-35.1,8-42.8,9.5     c-7.6,1.5-67.5,23.5-67.5,23.5L161.9,416z" fill="#2f2f2f"/>
		</g>
		<g>
			<path d="M240.4,325.9c0,0,9.4-10.1,5.2-15.7c-4.2-5.6-17.7-17.5-28.6-4.2c-10.9,13.3,7.1,36.9,22.9,34.2     s25.4-8.4,26.8-16.5c1.4-8-5.2-37.7-5.2-37.7l-16.3-61.6l-12.6-48.6c0,0-10.7-45.3-10.8-50.2c-0.1-4.1,8.7-21.3,12.7-28.5     c0.8-1.5,1.5-2.6,1.7-3c1.5-2.2-7.3-12.8-7.3-12.8s-20.6,21.5-19,44.5s35.6,151.4,35.6,151.4s10.1,26.8,9,36.2     c-1.2,9.5-4.7,12.5-8.4,14C242.3,329.1,240.4,325.9,240.4,325.9z" fill="#2f2f2f"/>
			<path d="M239.6,94.8c2.3,2.7,7,11.3,7.2,16.8c0.2,5.4-9.2,27.2-14.5,33.5c-5.4,6.2-18.2,21.6-18.2,21.6     s-37.2,41-33.5,64.1s12.7,49.2,32.2,55.5s53.6,0.1,59.8-5c6.2-5.1,19-29.9,16.6-43.9c-2.4-14-7.8-21.1-12.8-25.3     c-5-4.2-14.4-11.8-21.1-13.8c-6.6-2.1-16.9,0.5-16.9,0.5s-13.7,2.4-18.3,9.1c-4.5,6.6-11.8,17.9-11.1,23s10.6,26.6,16.1,23.5     c5.5-3.1-9.8-7,2.3-18.7c12.1-11.8,26.8-12.6,26.8-12.6s14.3,3.5,15.5,11.9s3.5,21.4-1.2,26.9c-4.7,5.5-16.1,12-27.9,13.6     c-11.9,1.6-40.1-10.9-40.5-20.8c-0.3-9.9-7-25.7,3.4-39.7c10.4-14,27.5-36,33.7-44.2c6.3-8.3,27.7-34.8,24.1-60.4     c-3.6-25.6-16.6-42.5-21.1-38.9c-4.4,3.6-13.7,12.6-13.7,12.6v9.1L239.6,94.8z" fill="#2f2f2f"/>
		</g>
		<path d="M485.9,430.9c0,10.9-10.1,19.9-22.7,19.9s-24.1-8.8-24.1-19.9c0-10.9,8.4-26.3,20.9-26.3    C486.5,404.6,485.9,419.8,485.9,430.9z" fill="#2f2f2f"/>
		<path d="M170.1,122.3c0,10.9-10.1,19.9-22.7,19.9s-24.1-9-24.1-19.9S131.7,96,144.3,96    C170.8,96,170.1,111.4,170.1,122.3z" fill="#2f2f2f"/>
	</g>
	<g id="lines">
		<g>
			<polygon fill="#2f2f2f" points="183.4,392.8 183.4,392.6 182.8,392.8    "/>
			<path d="M180.7,392.3c0,0.1-0.1,0.2-0.1,0.3l2.1-0.3C182.7,391.2,180.7,393,180.7,392.3z" fill="#2f2f2f"/>
			<path d="M180.5,391.8c-0.2-0.7-0.8-0.2-1.2-0.1C179.8,391.4,180,392.5,180.5,391.8z" fill="#2f2f2f"/>
			<path d="M132.1,377.7l0.1-0.1L132.1,377.7z" fill="#2f2f2f"/>
			<path d="M121.5,386.4l0.2,0.6c1.4-2.3,4.3-2.9,6.3-4.5v0.2c2.9-1.4,5.7-2.8,8.7-3.8s6.2-1.7,9.5-1.9     c-0.1,0.1-0.1,0.2-0.2,0.3c0.3-0.2,0.7-0.6,1-0.5c0.1,0.1-0.1,0.2-0.2,0.3c1.3,1,4.2-0.1,4.9,0.8c0.3,0,0.7-0.3,0.5-0.7     c5.2,0.9,10.5,3.3,15.5,5.5c0.1,0.2,0,0.5-0.2,0.7c4.8,1.2,8.3,4.5,11.8,7.7c0.3-0.2-0.1-0.6,0.6-0.7c-0.8-1.3-2.8-0.9-3.4-2.3     l0.3-0.2c-0.6-0.8-0.8,0.7-1.3-0.3c-0.1-0.5,0.3-0.3,0.2-0.5c-1.7-1.2-3.4-2.8-5.6-3c0.1-1-1.9-1.3-2.1-2.4c-0.7,0-1-0.3-1.5,0     c-6.2-4.3-14.2-6.4-22.1-6.4c-1.9,0.8-3.7,0.9-5.9,1c-1,0.1-2.1,0.2-3.1,0.3c-1,0.2-2.1,0.5-3,1c0,0-0.1-0.1,0-0.1     c-0.6,0.5-1.3,0.9-2.1,1.3c-0.8,0.5-1.6,0.8-2.4,1.2c0,0-0.2,0.3-0.5,0.6c-0.2,0.3-0.5,0.7-0.5,0.7c-4.7,1.7-8.8,4.8-12.6,8.1     c-3.7,3.4-7,7.1-10.5,10.7c-1.9,2.1-3.8,4.3-5.4,6.6c-1.5,2.4-2.7,5-3.5,7.7c-1.6,5.4-1.6,11.1,0,16.5c-0.1,0-0.2,0.1-0.3-0.2     c0.7,3.1,0.7,6.2,1.7,9.1h-0.1c1.6,3.5,2.9,7.1,4.5,10.6c1.5,3.5,3.5,6.9,6.1,9.4c2.3,3.6,5.2,7.2,8.6,10.5     c3.4,3.3,7.4,5.8,11.8,7.4l-0.1,0.3c1.9,0.5,3.5,1.2,5.2,1.6l2.6,0.8l2.7,0.6c1.7,0.5,3.6,0.5,5.5,0.7c1.9,0,3.7-0.1,5.5-0.5     c1.9-0.2,3.8-0.3,5.7-1c0.9-0.3,1.9-0.7,2.8-1c0.9-0.3,1.7-0.8,2.7-1.3c3.5-1.7,6.6-3.8,10.1-5.4c2.3-0.6,4.4-2.6,6.2-4.7     c0.5-0.5,0.9-1,1.3-1.5c0.5-0.5,0.8-1,1.3-1.5c0.8-0.9,1.9-1.6,2.8-2.2c2-1.3,3.8-2.7,5.2-4.4c0.7-0.9,1.5-1.7,2.1-2.7     c0.6-0.9,1.2-2,1.6-2.9c1.9-4.1,3-8.6,3.4-13c0.2-0.5,0.3-0.9,0.6-1.4l0.3-1.5c0.2-1,0.5-2,0.6-3c0.1-2.1,0.2-4.1,0.1-6.1     c-0.1-4.1-0.8-7.9-0.9-12c-0.6-0.8-0.9-1.7-1-2.7c-0.2-0.9-0.5-2-0.7-3c-0.1-1-0.5-2.1-0.8-3.1c-0.3-1-0.7-2.1-1.5-2.9l-0.2,0.3     c0.1-0.9-0.8-1.4-1.5-1.9s-1.4-0.8-0.9-1.7l0.1,0.1c0.1-1.3-2.9,0-2.4-1l-0.5,0.2c-0.7-0.6,0.3-0.5,0-1.2     c-0.2-0.1-0.7,0.5-0.9-0.1c1.2-1.5-2-1.3-0.7-2.9c0.5,0.3-0.1-1.2,1.2-0.7c-0.1-0.3-1.5-1.5-2-0.7c-0.7,0.7-1.7,0.9-1.4,2.1     l0.6-0.5c-0.2,0.8,0,0.5-0.2,0.9c0.9,0.9,0.3,1.7,0.7,2.7l0,0c1-0.2,1.3,0.7,1.5,1.2l-0.1,0.5c-0.5,0.7,2.1,0,0.8,0.6     c0.5,0.3,0.9,0.8,1.4,1.3c0.5,0.5,0.8,1,1.3,1.6c0.3,0.6,0.8,1,1.2,1.6l1,1.9c0.7,0.1,0.9,1.9,1.6,0.9c-0.7,1.2-0.2,3.1,0.1,3.8     c-0.1,0-0.2,0-0.2-0.1c-0.5,0.9,0,1.2,0.5,1.5c0.5,0.3,0.8,0.6,0.1,1.5c0.7-0.1,0.7,0.6,0.8,1.3c0.1,0.7,0.1,1.4,1,1.6     c-0.2,0.2-0.5,0.3-0.7,0.3c0.2,1.2,0.3,2.6,0.3,3.7c0,1.3,0,2.4-0.1,3.5c0.6,0.9,0.5,2,0.3,3c-0.2,1-0.3,2.1,0.5,2.9     c-0.3,1.3-1.5,3.1-1.2,5l-0.1-0.2c-0.1,1-0.5,2.1-0.6,3.1c-0.1,0.6-0.1,1-0.1,1.5c0,0.5,0,0.9,0.1,1.4c-1.6,0.1-1.6,0.9-2.4,1.6     c0.1,0.8-0.2,1.7-0.6,2.8c-0.5,1-0.7,2.2-1,3.3c-0.8-0.1-0.6,1.6-1.5,1.2c-0.1,0.7-0.3,1.5-0.7,2.2c-0.3,0.7-0.7,1.4-1,2.1     c-0.7,1.5-1.9,2.8-3,4c-1,1.3-2.4,2.3-3.8,3.3c-1.3,1-2.9,1.7-4.3,2.4v-0.1c-0.2,0.9-0.2,2.6-0.6,3.6c-0.1,0-0.2-0.1-0.1-0.2     c-0.8,0.8-2.3,0.6-3.1,1.4c-0.1-0.1-0.1-0.1,0-0.3c-0.7,0.9-2.3,0.5-3,1.7l-0.2-0.2l-0.6,0.7c-0.1-0.3-0.3-0.8,0.1-0.9     c-4.4,2.1-8.8,4.2-13.7,5.7c-4.8,1.4-10,2-15,1.2l0.5-0.2c0,0-2,0.3-2,0.2s0.1-0.2,0.2-0.2c-1.2-0.6-2.4-0.8-3.6-0.9     c-1.2-0.3-2.4-0.6-3.6-1c0.1-0.1,0.6-0.3,0.3-0.6c-2,0.1-2-2.3-3.6-1c0-0.1,0.1-0.5,0.3-0.6c-4.5-2-8.5-5.7-11.5-9.8     c-2-1-3.5-2.9-4.8-4.9c-1.3-2-2.4-4-4.2-5.6l0.3-0.1c-3.8-4.7-5-11.1-6.5-16.9c-0.3-2.4-1-4.1-1.3-6.6l0.5-0.1     c-1-2.1-0.7-4.4-0.2-6.6c0.5-2.2,1.2-4.3,0.8-6.7l0.5,0.5c-0.7-0.9,1-2.4-0.6-2.7l0.7-0.6c-0.5-1.7,0.3-3,1.3-4.2     c0.5-0.6,1-1.2,1.4-1.9c0.5-0.7,0.8-1.4,1.2-2.3l0.1,0.3c0.3-0.9,0.8-2.1,1.6-2.4c0,0.1,0.1,0.1,0,0.3c1.5-0.7,2.6-2,3.5-3.5     c0.9-1.4,1.7-2.9,2.9-4.1l0.2,0.7c0.6-1.6,3-3.3,4.3-4.9l0.1,0.3l0.5-1l0.5,0.5C117.8,390.1,119.4,388.1,121.5,386.4z" fill="#2f2f2f"/>
			<path d="M146.9,377.3C146.7,377.3,146.7,377.3,146.9,377.3C146.7,377.3,146.7,377.3,146.9,377.3z" fill="#2f2f2f"/>
			<path d="M181.8,400.2c-0.1-0.1-0.1-0.2-0.1-0.3C181.6,399.9,181.8,400.1,181.8,400.2z" fill="#2f2f2f"/>
		</g>
		<g>
			<polygon fill="#2f2f2f" points="287,249.3 287.3,249 286.5,248.4    "/>
			<path d="M285.1,245.3c-0.1,0.1-0.5,0.1-0.6,0.2l2.4,2.3C288.3,246.7,284.2,246,285.1,245.3z" fill="#2f2f2f"/>
			<path d="M285.3,244.6c0.6-0.9-0.6-1.3-0.9-1.5C285.2,243.4,284,244.7,285.3,244.6z" fill="#2f2f2f"/>
			<path d="M255.2,171.1c0.1,0,0.2,0.1,0.3,0.1C255.4,171.1,255.3,170.9,255.2,171.1z" fill="#2f2f2f"/>
			<path d="M234,166.5l-0.5,0.8c4.2-0.6,7.8,2.4,11.8,3.4l-0.3,0.2c4.7,2.2,9.1,4.4,13.3,7.1     c4.2,2.7,8.3,5.8,11.5,9.9c-0.2-0.1-0.5,0-0.6,0c0.6,0.2,1.4,0.3,1.6,0.8c-0.1,0.2-0.5,0.1-0.6,0c0,2.6,4.3,5,3.8,6.9     c0.5,0.5,1.2,0.5,1.4-0.1c4.1,7.3,6.3,16.2,8.5,24.4c-0.1,0.5-0.6,0.6-1.2,0.5c3.3,7,2.4,14.8,2.1,22c0.7,0.2,0.7-0.7,1.4,0     c0.8-2.3-1.6-4.3-0.5-6.4l0.6,0.2c0.3-1.6-1.6-0.2-0.8-2c0.5-0.7,0.8,0.1,0.8-0.1c-0.3-3.3,0-6.9-1.7-9.9c1.3-0.9-0.3-3.6,0.8-5     c-0.7-0.8-0.6-1.7-1.6-1.9c-0.8-11.9-6.1-23.9-13.8-33.5c-2.8-1.4-4.9-3.7-7.1-6.2c-1.2-1.2-2.3-2.4-3.6-3.5     c-1.4-1-2.7-2.1-4.3-2.8c0-0.1,0.1-0.2,0.1-0.2c-1.2-0.2-2.4-0.7-3.7-1.3c-1.3-0.5-2.7-1.2-3.7-1.9c0,0-0.6,0-1.3,0     c-0.6,0-1.3,0.1-1.3,0.1c-6.7-4.1-14.5-6.2-22.3-7.4c-7.8-1.3-15.7-1.6-23.5-2.3c-4.3-0.3-9-0.5-13.5,0     c-4.5,0.5-8.8,1.6-12.9,3.3c-8.3,3.3-15.2,8.8-20.4,16.3c-0.1-0.2-0.3-0.2-0.1-0.6c-3.3,4-7,6.9-9.4,11.1l-0.2-0.1     c-2.7,5.5-5.8,10.6-8.6,15.9c-2.8,5.4-5,11.1-5.7,16.8c-2.2,6.5-3.8,13.6-4.4,20.9c-0.7,7.3,0.1,15,2.3,21.9l-0.5,0.1     c1.3,2.7,2,5.5,3.1,8l1.6,4l2,3.8c1.2,2.7,2.9,4.9,4.5,7.3c1.7,2.3,3.7,4.4,5.9,6.3c2.1,2.1,4.3,4.3,6.9,5.9     c1.3,0.8,2.6,1.6,4,2.4c1.4,0.7,2.8,1.3,4.2,2c5.6,2.7,11.3,4.4,16.6,7.3c3.1,2.3,7.4,3,11.8,3c1,0,2.1,0.1,3.1,0.1     c1,0,2.1,0,3,0.1c2,0.1,3.8,0.6,5.5,1.4c3.5,1.2,7,2.1,10.6,2c1.7,0,3.6,0.1,5.4-0.1c1.7-0.2,3.5-0.6,5.2-0.9     c7-1.7,13.5-4.7,19.4-8.7c0.8-0.2,1.5-0.5,2.3-0.7l2.2-1c1.4-0.7,2.9-1.5,4.3-2.3c2.7-1.9,5.2-3.7,7.6-5.9     c4.9-4.2,9-8.8,13.8-12.9c0.5-1.5,1.3-2.8,2.2-4c0.9-1.3,1.9-2.6,3-3.7c1.2-1.2,2.2-2.6,3-4.1c0.8-1.5,1.9-2.9,2.1-4.7h-0.7     c1.3-0.8,1-2.4,0.8-3.7s-0.3-2.4,1.2-2.9l0.1,0.2c1.7-1-2.9-3.6-1-4l-0.7-0.3c0-1.5,0.8,0,1.4-1.2c0-0.5-1.3-0.3-0.8-1.2     c3,0.1-0.5-3.7,2.9-3.7c0,0.9,1.4-1.3,2,0.7c0.3-0.6,0.3-3.3-1-3c-1.5-0.2-2.8-1.2-4.1,0.3l1,0.3c-1.2,0.5-0.6,0.3-1.4,0.6     c-0.2,2-1.9,2.1-2.7,3.5h0.1c1.3,1,0.3,2.3,0,3l-0.7,0.2c-1.4,0.2,2.1,2.6,0,1.6c0,0.9-0.1,2-0.2,3c-0.2,1-0.5,2-0.7,3     s-0.6,2.1-0.8,3.1l-1.3,3c0.6,0.9-1.4,3,0.5,2.9c-2.1,0.2-4.2,2.8-4.7,3.8c-0.1-0.1-0.2-0.2-0.1-0.3c-1.5,0.5-1.4,1.3-1.4,2.1     s0,1.6-1.9,1.6c0.7,0.7,0,1.4-0.7,2.3c-0.7,0.8-1.6,1.6-1,2.9c-0.6-0.1-0.9-0.2-1.2-0.6c-1.3,1.5-2.7,2.9-4.3,4.1s-3,2.4-4.3,3.4     c-0.5,1.5-2,2.4-3.4,3.4c-1.5,0.8-2.8,1.6-3.1,3.4c-2,0.8-5.4,1.3-7.4,3.5l0.1-0.3c-1.4,0.8-3,1.5-4.5,2.4     c-0.7,0.5-1.4,0.9-2,1.4c-0.6,0.5-1.2,0.9-1.5,1.5c-1.7-2-2.8-1-4.4-1.4c-0.8,0.9-2.3,1.4-4.1,2c-1.6,0.5-3.5,1.3-5,1.9     c-0.7-1-2.7,0.8-3-0.7c-1,0.5-2.2,1-3.4,1.4c-1.2,0.3-2.4,0.6-3.7,0.8c-2.6,0.5-5.2,0.5-7.8,0.2c-2.7-0.1-5.2-0.8-7.8-1.5     c-2.6-0.6-4.9-1.9-7.2-2.9l0.1-0.1c-1.4,0.6-3.4,2.1-5,2.8c-0.1-0.1,0-0.5,0.2-0.3c-1.9-0.2-3-2.3-4.9-2.6     c0.1-0.2,0.1-0.2,0.5-0.3c-1.9,0.1-2.8-2.4-5.1-2.1l0.1-0.5l-1.4,0.1c0.2-0.5,0.6-1.2,1.2-0.8c-7-3.3-14-6.7-20.5-11.4     c-6.5-4.5-12.3-10.5-16.2-17.5l0.7,0.2c0,0-2.4-2.2-2.3-2.2c0.2-0.1,0.5,0,0.6,0c-0.5-2-1.4-3.7-2.4-5.5     c-0.8-1.7-1.7-3.6-2.2-5.5c0.2,0,0.9,0.3,1-0.2c-2.1-2.4,0.9-4.7-2.3-5.6c0.1-0.1,0.8-0.3,1-0.1c-2.1-7.4-1.4-16.1,0.7-23.9     c-0.7-3.6,0.1-7.2,1.3-10.6c1-3.5,2.4-6.9,2.9-10.6l0.5,0.2c1.9-9.4,8.7-17.1,14.4-24.7c2.7-2.9,4.1-5.4,6.9-8.1l0.6,0.5     c1.5-3.3,4.8-5.1,7.9-6.7c3.3-1.6,6.5-2.9,9.1-5.7v1c0.3-1.7,4.1-1.2,2.8-3.3l1.4,0.2c1.7-2.3,4.1-2.7,6.4-2.7     c1.2,0,2.4,0.1,3.7,0c1.3,0,2.6-0.3,4.1-0.9l-0.3,0.6c1.5-0.5,3.4-0.9,4.5-0.3c-0.2,0.1-0.1,0.2-0.5,0.3c2.4,1.2,5,1.2,7.7,0.9     s5.4-0.7,7.9-0.5l-0.7,1c2.6-1,7.1,0.5,10.4,0.5l-0.2,0.5l1.7-0.5l-0.1,1C225.9,165.6,230.1,165.5,234,166.5z" fill="#2f2f2f"/>
			<path d="M270.2,188.7C270.2,188.6,270.2,188.6,270.2,188.7C270.1,188.6,270.1,188.6,270.2,188.7z" fill="#2f2f2f"/>
			<path d="M276.5,254.4c0.1-0.2,0.1-0.3,0.2-0.5C276.5,253.9,276.5,254.3,276.5,254.4z" fill="#2f2f2f"/>
		</g>
		<g>
			<polygon fill="#2f2f2f" points="462.2,433.8 462.4,433.6 461.6,433    "/>
			<path d="M460.2,429.8c-0.1,0.1-0.5,0.1-0.6,0.2l2.4,2.3C463.6,431.4,459.3,430.5,460.2,429.8z" fill="#2f2f2f"/>
			<path d="M460.5,429.1c0.6-0.9-0.6-1.3-0.9-1.5C460.5,428,459.3,429.4,460.5,429.1z" fill="#2f2f2f"/>
			<path d="M430.3,355.6c0.1,0,0.2,0.1,0.3,0.1C430.5,355.6,430.4,355.6,430.3,355.6z" fill="#2f2f2f"/>
			<path d="M409.3,351.1l-0.5,0.8c4.2-0.6,7.8,2.4,11.8,3.4l-0.3,0.2c4.7,2.2,9.1,4.4,13.3,7.1     c4.2,2.7,8.3,5.8,11.5,9.9c-0.2-0.1-0.5,0-0.6,0c0.6,0.2,1.4,0.3,1.6,0.8c-0.1,0.2-0.5,0.1-0.6,0c0,2.6,4.3,5,3.8,6.9     c0.5,0.5,1.2,0.5,1.4-0.1c4.1,7.3,6.3,16.2,8.5,24.4c-0.1,0.5-0.6,0.6-1.2,0.5c3.3,7,2.4,14.8,2.1,22c0.7,0.2,0.7-0.7,1.4,0     c0.8-2.3-1.6-4.3-0.5-6.4l0.6,0.2c0.3-1.6-1.6-0.2-0.8-2c0.5-0.7,0.8,0.1,0.8-0.1c-0.3-3.3,0-6.9-1.7-9.9c1.3-0.9-0.3-3.6,0.8-5     c-0.7-0.8-0.6-1.7-1.6-1.9c-0.8-11.9-6.1-23.9-13.8-33.5c-2.8-1.4-4.9-3.7-7.1-6.2c-1.2-1.2-2.3-2.4-3.6-3.5     c-1.4-1-2.7-2.1-4.3-2.8c0-0.1,0.1-0.2,0.1-0.2c-1.2-0.2-2.4-0.7-3.7-1.3c-1.3-0.5-2.7-1.2-3.7-1.9c0,0-0.6,0-1.3,0     c-0.6,0-1.3,0.1-1.3,0.1c-6.7-4.1-14.5-6.2-22.3-7.4c-7.8-1.3-15.7-1.6-23.5-2.3c-4.3-0.3-9-0.5-13.5,0     c-4.5,0.5-8.8,1.6-12.9,3.3c-8.3,3.3-15.2,8.8-20.4,16.3c-0.1-0.2-0.3-0.2-0.1-0.6c-3.3,4-7,6.9-9.4,11.1l-0.2-0.1     c-2.7,5.5-5.8,10.6-8.6,15.9c-2.8,5.4-5,11.1-5.7,16.8c-2.2,6.5-3.8,13.6-4.4,20.9c-0.7,7.3,0.1,15,2.3,21.9l-0.5,0.1     c1.3,2.7,2,5.5,3.1,8l1.6,4l2,3.8c1.2,2.7,2.9,4.9,4.5,7.3c1.7,2.3,3.7,4.4,5.9,6.3c2.1,2.1,4.3,4.3,6.9,5.9     c1.3,0.8,2.6,1.6,4,2.4c1.4,0.7,2.8,1.3,4.2,2c5.6,2.7,11.3,4.4,16.6,7.3c3.1,2.3,7.4,3,11.8,3c1,0,2.1,0.1,3.1,0.1s2.1,0,3,0.1     c2,0.1,3.8,0.6,5.5,1.4c3.5,1.2,7,2.1,10.6,2c1.7,0,3.6,0.1,5.4-0.1c1.7-0.2,3.5-0.6,5.2-0.9c7-1.7,13.5-4.7,19.4-8.7     c0.8-0.2,1.5-0.5,2.3-0.7l2.2-1c1.4-0.7,2.9-1.5,4.3-2.3c2.7-1.9,5.2-3.7,7.6-5.9c4.9-4.2,9-8.8,13.8-12.9c0.5-1.5,1.3-2.8,2.2-4     c0.9-1.3,1.9-2.6,3-3.7s2.2-2.6,3-4.1c0.8-1.5,1.9-2.9,2.1-4.7h-0.7c1.3-0.8,1-2.4,0.8-3.7s-0.3-2.4,1.2-2.9l0.1,0.2     c1.7-1-2.9-3.6-1-4l-0.7-0.3c0-1.5,0.8,0,1.4-1.2c0-0.5-1.3-0.3-0.8-1.2c3,0.1-0.5-3.7,2.9-3.7c0,0.9,1.4-1.3,2,0.7     c0.3-0.6,0.3-3.3-1-3c-1.5-0.2-2.8-1.2-4.1,0.3l1,0.3c-1.2,0.5-0.6,0.3-1.4,0.6c-0.2,2-1.9,2.1-2.7,3.5h0.1c1.3,1,0.3,2.3,0,3     l-0.7,0.2c-1.4,0.2,2.1,2.6,0,1.6c0,0.9-0.1,2-0.2,3c-0.2,1-0.5,2-0.7,3c-0.2,1-0.6,2.1-0.8,3.1l-1.3,3c0.6,0.9-1.4,3,0.5,2.9     c-2.1,0.2-4.2,2.8-4.7,3.8c-0.1-0.1-0.2-0.2-0.1-0.3c-1.5,0.5-1.4,1.3-1.4,2.1c0,0.8,0,1.6-1.9,1.6c0.7,0.7,0,1.4-0.7,2.3     c-0.7,0.8-1.6,1.6-1,2.9c-0.6-0.1-0.9-0.2-1.2-0.6c-1.3,1.5-2.7,2.9-4.3,4.1c-1.6,1.2-3,2.4-4.3,3.4c-0.5,1.5-2,2.4-3.4,3.4     c-1.5,0.8-2.8,1.6-3.1,3.4c-2,0.8-5.4,1.3-7.4,3.5l0.1-0.3c-1.4,0.8-3,1.5-4.5,2.4c-0.7,0.5-1.4,0.9-2,1.4s-1.2,0.9-1.5,1.5     c-1.7-2-2.8-1-4.4-1.4c-0.8,0.9-2.3,1.4-4.1,2c-1.6,0.5-3.5,1.3-5,1.9c-0.7-1-2.7,0.8-3-0.7c-1,0.5-2.2,1-3.4,1.4     c-1.2,0.3-2.4,0.6-3.7,0.8c-2.6,0.5-5.2,0.5-7.8,0.2c-2.7-0.1-5.2-0.8-7.8-1.5c-2.6-0.6-4.9-1.9-7.2-2.9l0.1-0.1     c-1.4,0.6-3.4,2.1-5,2.8c-0.1-0.1,0-0.5,0.2-0.3c-1.9-0.2-3-2.3-4.9-2.6c0.1-0.2,0.1-0.2,0.5-0.3c-1.9,0.1-2.8-2.4-5.1-2.1     l0.1-0.5l-1.4,0.1c0.2-0.5,0.6-1.2,1.2-0.8c-7-3.3-14-6.7-20.5-11.4c-6.5-4.5-12.3-10.5-16.2-17.5l0.7,0.2c0,0-2.4-2.2-2.3-2.2     c0.2-0.1,0.5,0,0.6,0c-0.5-2-1.4-3.7-2.4-5.5c-0.8-1.7-1.7-3.6-2.2-5.5c0.2,0,0.9,0.3,1-0.2c-2.1-2.4,0.9-4.7-2.3-5.6     c0.1-0.1,0.8-0.3,1-0.1c-2.1-7.4-1.4-16.1,0.7-23.9c-0.7-3.6,0.1-7.2,1.3-10.6c1-3.5,2.4-6.9,2.9-10.6l0.5,0.2     c1.9-9.4,8.7-17.1,14.4-24.7c2.7-2.9,4.1-5.4,6.9-8.1l0.6,0.5c1.5-3.3,4.8-5.1,7.9-6.7c3.3-1.6,6.5-2.9,9.1-5.7v1     c0.3-1.7,4.1-1.2,2.8-3.3l1.4,0.2c1.7-2.3,4.1-2.7,6.4-2.7c1.2,0,2.4,0.1,3.7,0c1.3,0,2.6-0.3,4.1-0.9l-0.3,0.6     c1.5-0.5,3.4-0.9,4.5-0.3c-0.2,0.1-0.1,0.2-0.5,0.3c2.4,1.2,5,1.2,7.7,0.9c2.7-0.2,5.4-0.7,7.9-0.5l-0.3,0.5     c2.6-1,7.1,0.5,10.4,0.5l-0.2,0.5l1.7-0.5l-0.1,1C401.1,350.1,405.2,350.1,409.3,351.1z" fill="#2f2f2f"/>
			<path d="M445.4,373.3L445.4,373.3C445.2,373.2,445.3,373.2,445.4,373.3z" fill="#2f2f2f"/>
			<path d="M451.6,438.9c0.1-0.2,0.1-0.3,0.2-0.5C451.6,438.5,451.7,438.8,451.6,438.9z" fill="#2f2f2f"/>
		</g>
	</g>
</g>
</svg>