<?xml version="1.0" encoding="UTF-8" standalone="no"?><svg xmlns="http://www.w3.org/2000/svg" xmlns:xlink="http://www.w3.org/1999/xlink" fill="#cf3838" height="275.7" preserveAspectRatio="xMidYMid meet" version="1" viewBox="-0.4 -0.2 321.9 275.7" width="321.9" zoomAndPan="magnify"><g id="change1_1"><path d="M321.239,4.431l-2.633,24.288c-0.222,2.05-1.956,3.569-3.972,3.569c-0.145,0-0.289-0.008-0.436-0.023 c-2.196-0.238-3.784-2.211-3.546-4.407l2.633-24.288c0.237-2.197,2.215-3.784,4.407-3.546 C319.889,0.262,321.477,2.235,321.239,4.431z M308.251,87.128c-2.194-0.235-4.17,1.349-4.407,3.546l-8.559,78.947 c-0.238,2.196,1.35,4.169,3.546,4.407c0.146,0.016,0.291,0.023,0.436,0.023c2.016,0,3.75-1.52,3.972-3.569l8.559-78.947 C312.036,89.339,310.448,87.366,308.251,87.128z M237.326,69.124c-0.78-2.067-3.092-3.109-5.155-2.329 c-2.067,0.78-3.11,3.088-2.33,5.155l38.218,101.231c0.604,1.602,2.127,2.588,3.743,2.588c0.469,0,0.946-0.083,1.412-0.259 c2.066-0.78,3.109-3.088,2.329-5.155L237.326,69.124z M112.014,55.837c-1.629-1.49-4.16-1.38-5.651,0.252 c-1.491,1.63-1.378,4.16,0.252,5.65L245.38,188.663c0.767,0.702,1.734,1.049,2.698,1.049c1.083,0,2.163-0.438,2.952-1.301 c1.491-1.63,1.379-4.16-0.252-5.65L112.014,55.837z M51.366,162.169c1.75,0,3.358-1.158,3.851-2.927 c0.593-2.128-0.651-4.334-2.779-4.928L5.075,141.11c-2.126-0.589-4.334,0.652-4.927,2.779c-0.593,2.128,0.651,4.334,2.779,4.928 l47.363,13.205C50.649,162.121,51.011,162.169,51.366,162.169z M234.296,205.017l-82.737-23.066 c-2.125-0.591-4.333,0.651-4.927,2.779c-0.593,2.128,0.651,4.334,2.779,4.928l82.737,23.066c0.359,0.1,0.721,0.147,1.077,0.147 c1.75,0,3.357-1.158,3.851-2.927C237.668,207.817,236.424,205.611,234.296,205.017z M92.401,259.724l-39.036,7.793 c-2.167,0.433-3.572,2.54-3.139,4.706c0.379,1.902,2.05,3.218,3.918,3.218c0.26,0,0.523-0.025,0.788-0.078l39.036-7.793 c2.167-0.433,3.572-2.54,3.139-4.706C96.675,260.697,94.569,259.296,92.401,259.724z M229.651,232.322l-82.643,16.5 c-2.167,0.433-3.572,2.54-3.139,4.706c0.379,1.902,2.05,3.218,3.918,3.218c0.26,0,0.523-0.025,0.788-0.078l82.643-16.5 c2.167-0.433,3.572-2.54,3.139-4.706C233.924,233.295,231.816,231.889,229.651,232.322z" fill="inherit"/></g></svg>